<?xml version="1.0" ?><svg enable-background="new 0 0 100 100" id="Livello_1" version="1.1" viewBox="0 0 100 100" xml:space="preserve" xmlns="http://www.w3.org/2000/svg" xmlns:xlink="http://www.w3.org/1999/xlink"><path d="M21.858,84.642h56.283c3.584,0,6.5-2.916,6.5-6.5V21.858c0-3.584-2.916-6.5-6.5-6.5H21.858c-3.584,0-6.5,2.916-6.5,6.5  v56.284C15.358,81.726,18.274,84.642,21.858,84.642z M16.358,21.858c0-3.033,2.468-5.5,5.5-5.5h56.283c3.032,0,5.5,2.467,5.5,5.5  v56.284c0,3.033-2.468,5.5-5.5,5.5H21.858c-3.032,0-5.5-2.467-5.5-5.5V21.858z"/><path d="M26.24,64.853h12.09c1.351,0,2.68-0.171,3.95-0.509c1.312-0.345,2.485-0.88,3.49-1.592c1.037-0.734,1.867-1.685,2.467-2.824  c0.604-1.142,0.909-2.511,0.909-4.068c0-1.929-0.475-3.604-1.41-4.978c-0.761-1.114-1.836-1.966-3.205-2.542  c0.906-0.567,1.634-1.248,2.172-2.032c0.724-1.063,1.09-2.397,1.09-3.967c0-1.438-0.242-2.667-0.721-3.652  c-0.49-1.002-1.188-1.818-2.079-2.427c-0.888-0.597-1.94-1.028-3.128-1.28c-1.188-0.257-2.471-0.382-3.922-0.382H26.24  c-0.276,0-0.5,0.224-0.5,0.5v29.253C25.74,64.629,25.964,64.853,26.24,64.853z M26.74,35.599h11.203c1.379,0,2.593,0.118,3.713,0.36  c1.062,0.226,1.997,0.606,2.775,1.13c0.743,0.508,1.329,1.194,1.741,2.037c0.411,0.847,0.62,1.929,0.62,3.214  c0,1.365-0.309,2.511-0.915,3.403c-0.607,0.886-1.519,1.622-2.698,2.195H26.74V35.599z M26.74,48.939h16.48  c1.639,0.482,2.883,1.323,3.69,2.505c0.832,1.222,1.236,2.666,1.236,4.415c0,1.393-0.267,2.604-0.794,3.602  c-0.526,0.999-1.253,1.832-2.16,2.474c-0.906,0.642-1.972,1.127-3.168,1.441c-1.188,0.316-2.431,0.476-3.694,0.476H26.74V48.939z"/><path d="M55.187,62.168c1.009,1.048,2.185,1.831,3.598,2.396c1.406,0.556,2.988,0.837,4.701,0.837c2.494,0,4.649-0.582,6.404-1.729  c1.347-0.866,2.444-2.177,3.261-3.896c0.118-0.25,0.012-0.547-0.237-0.666c-0.248-0.117-0.548-0.013-0.667,0.237  c-0.734,1.548-1.71,2.72-2.9,3.486c-1.592,1.04-3.563,1.567-5.86,1.567c-1.587,0-3.045-0.258-4.332-0.767  c-1.276-0.51-2.338-1.216-3.241-2.154c-0.891-0.954-1.56-2.054-2.047-3.362c-0.484-1.307-0.729-2.767-0.729-4.341  c0-0.163,0.003-0.325,0.009-0.486l20.611,0.166c0.167,0.009,0.274-0.056,0.368-0.158c0.096-0.102,0.145-0.239,0.135-0.378  c-0.063-0.878-0.203-1.751-0.417-2.597c-0.403-1.579-1.058-2.989-1.943-4.192c-0.91-1.239-2.08-2.233-3.475-2.954  c-1.402-0.732-3.063-1.104-4.938-1.104c-1.674,0-3.227,0.304-4.615,0.903c-1.377,0.596-2.586,1.429-3.594,2.474  c-0.985,1.02-1.768,2.271-2.326,3.72c-0.421,1.113-0.681,2.3-0.774,3.542c-0.004,0.024-0.006,0.048-0.006,0.072  c0,0.002,0,0.004,0,0.007c-0.022,0.326-0.034,0.655-0.034,0.987c0,1.693,0.267,3.271,0.792,4.689  C53.454,59.881,54.213,61.125,55.187,62.168z M53.885,49.525c0.516-1.34,1.206-2.446,2.111-3.382c0.915-0.95,2.017-1.707,3.271-2.25  c1.28-0.552,2.66-0.821,4.219-0.821c1.712,0,3.218,0.333,4.478,0.992c1.259,0.65,2.312,1.544,3.13,2.659  c0.81,1.1,1.408,2.394,1.78,3.847c0.154,0.614,0.269,1.245,0.339,1.882L53.22,52.291C53.332,51.324,53.554,50.398,53.885,49.525z"/><path d="M57.287,37.562h11.857c0.276,0,0.5-0.224,0.5-0.5s-0.224-0.5-0.5-0.5H57.287c-0.276,0-0.5,0.224-0.5,0.5  S57.011,37.562,57.287,37.562z"/></svg>