<?xml version="1.0" ?><svg enable-background="new 0 0 100 100" id="Livello_1" version="1.1" viewBox="0 0 100 100" xml:space="preserve" xmlns="http://www.w3.org/2000/svg" xmlns:xlink="http://www.w3.org/1999/xlink"><path d="M23.629,15.01c-4.809,0-8.721,3.91-8.721,8.717c0,4.809,3.912,8.721,8.721,8.721c4.806,0,8.715-3.912,8.715-8.721  C32.344,18.92,28.435,15.01,23.629,15.01z M23.629,31.447c-4.257,0-7.721-3.464-7.721-7.721c0-4.255,3.463-7.717,7.721-7.717  c4.254,0,7.715,3.462,7.715,7.717C31.344,27.983,27.883,31.447,23.629,31.447z"/><path d="M30.714,37.683H16.537c-0.276,0-0.5,0.224-0.5,0.5v45.611c0,0.276,0.224,0.5,0.5,0.5h14.177c0.276,0,0.5-0.224,0.5-0.5  V38.183C31.214,37.906,30.99,37.683,30.714,37.683z M30.214,83.294H17.037V38.683h13.177V83.294z"/><path d="M66.805,36.549c-6.422,0-10.877,3.223-13.104,6.405v-4.771c0-0.276-0.224-0.5-0.5-0.5H39.606c-0.276,0-0.5,0.224-0.5,0.5  v45.611c0,0.276,0.224,0.5,0.5,0.5H53.77c0.276,0,0.5-0.224,0.5-0.5V61.23c0-5.543,0.952-11.21,8.008-11.21  c6.35,0,6.866,5.25,6.866,11.592v22.182c0,0.276,0.224,0.5,0.5,0.5H83.81c0.276,0,0.5-0.224,0.5-0.5V58.775  C84.31,47.231,82.189,36.549,66.805,36.549z M83.31,83.294H70.144V61.612c0-5.015,0-12.592-7.866-12.592  c-7.984,0-9.008,6.525-9.008,12.21v22.063H40.106V38.683h12.596v5.732c0,0.276,0.224,0.5,0.5,0.5h0.19  c0.186,0,0.355-0.103,0.442-0.267c1.729-3.275,6.163-7.1,12.971-7.1c13.698,0,16.505,8.485,16.505,21.227V83.294z"/></svg>