<?xml version="1.0" ?><svg enable-background="new 0 0 100 100" id="Livello_1" version="1.1" viewBox="0 0 100 100" xml:space="preserve" xmlns="http://www.w3.org/2000/svg" xmlns:xlink="http://www.w3.org/1999/xlink"><path d="M54.307,15.358H44.303c-0.434,0-0.922,0.357-0.988,0.956c-0.566,5.156-3.021,14.35-13.107,17.985  c-0.198,0.072-0.331,0.26-0.331,0.471v8.82c0,0.276,0.224,0.5,0.5,0.5h6.409v21.812c0,4.844,2.083,9.783,5.573,13.213  c3.683,3.621,8.84,5.526,14.941,5.526c0.167,0,0.337-0.001,0.506-0.004c4.867-0.084,10.81-2.134,12.229-4.218  c0.088-0.129,0.111-0.293,0.061-0.441l-3.285-9.739c-0.045-0.135-0.147-0.244-0.279-0.3c-0.13-0.058-0.281-0.053-0.41,0.009  c-1.216,0.579-3.597,1.086-5.308,1.13c-1.882,0.052-3.339-0.412-4.344-1.373c-1.374-1.315-1.691-3.373-1.715-4.858V44.091h13.212  c0.276,0,0.5-0.224,0.5-0.5V33.253c0-0.276-0.224-0.5-0.5-0.5H54.807V15.858C54.807,15.582,54.583,15.358,54.307,15.358z   M67.468,33.753v9.338H54.256c-0.276,0-0.5,0.224-0.5,0.5v21.264c0.039,2.415,0.739,4.343,2.023,5.572  c1.205,1.154,2.918,1.721,5.062,1.651c1.641-0.043,3.789-0.468,5.195-1.008l3.027,8.976c-1.378,1.606-6.504,3.509-11.273,3.592  c-6.051,0.106-11.14-1.707-14.729-5.235c-3.302-3.246-5.274-7.919-5.274-12.5V43.591c0-0.276-0.224-0.5-0.5-0.5h-6.409v-7.972  c10.319-3.9,12.846-13.365,13.425-18.761h9.503v16.895c0,0.276,0.224,0.5,0.5,0.5H67.468z"/></svg>