<?xml version="1.0" ?><svg enable-background="new 0 0 100 100" id="Livello_1" version="1.1" viewBox="0 0 100 100" xml:space="preserve" xmlns="http://www.w3.org/2000/svg" xmlns:xlink="http://www.w3.org/1999/xlink"><g><path d="M89.788,24.737c-2.286,1.015-4.685,1.758-7.153,2.219c2.633-2.08,4.597-4.895,5.623-8.104   c0.062-0.198-0.003-0.414-0.165-0.544c-0.163-0.129-0.389-0.145-0.566-0.038c-3.106,1.842-6.468,3.143-9.993,3.866   C74.36,18.869,69.948,17,65.384,17c-9.324,0-16.909,7.585-16.909,16.909c0,1.085,0.101,2.159,0.3,3.202   c-12.766-0.822-24.693-6.966-32.81-16.923c-0.104-0.127-0.266-0.196-0.427-0.183c-0.163,0.013-0.311,0.104-0.393,0.246   c-1.498,2.568-2.29,5.508-2.29,8.501c0,5.067,2.25,9.812,6.096,13.009c-1.919-0.272-3.789-0.897-5.485-1.84   c-0.154-0.086-0.34-0.083-0.494,0.005c-0.151,0.088-0.246,0.25-0.249,0.426l-0.001,0.213c0,7.302,4.718,13.73,11.484,16.021   c-1.689,0.229-3.433,0.186-5.139-0.142c-0.171-0.031-0.351,0.028-0.468,0.16s-0.156,0.315-0.103,0.483   c2.066,6.449,7.76,10.996,14.417,11.662c-5.552,3.999-12.089,6.105-18.991,6.105c-1.291,0-2.589-0.076-3.855-0.225   c-0.229-0.035-0.451,0.108-0.529,0.327c-0.078,0.22,0.005,0.464,0.201,0.59C17.343,80.424,26.135,83,35.163,83   c17.753,0,28.853-8.365,35.037-15.382c7.722-8.761,12.15-20.354,12.15-31.807c0-0.628-0.012-1.254-0.036-1.876   c3.172-2.329,5.894-5.175,8.093-8.463c0.123-0.186,0.109-0.43-0.033-0.601C90.229,24.702,89.99,24.645,89.788,24.737z    M81.511,33.283c-0.137,0.099-0.214,0.259-0.206,0.428c0.03,0.696,0.046,1.397,0.046,2.101C81.351,64.724,57.867,82,35.163,82   c-8.132,0-16.066-2.135-23.079-6.193c0.611,0.033,1.226,0.05,1.839,0.05c7.581,0,14.735-2.466,20.688-7.13   c0.166-0.131,0.232-0.352,0.166-0.553c-0.067-0.2-0.254-0.337-0.466-0.341c-6.534-0.121-12.296-4.211-14.588-10.266   c2.289,0.319,4.604,0.166,6.792-0.43c0.225-0.061,0.377-0.268,0.369-0.499c-0.008-0.232-0.174-0.428-0.401-0.474   c-7.19-1.443-12.463-7.686-12.749-14.975c2.146,1.053,4.517,1.645,6.905,1.721c0.225,0,0.423-0.135,0.492-0.348   c0.067-0.212-0.014-0.444-0.199-0.568c-4.432-2.961-7.077-7.911-7.077-13.242c0-2.573,0.622-5.104,1.805-7.365   c8.422,10.008,20.667,16.105,33.714,16.76c0.157,0.021,0.308-0.058,0.409-0.179c0.101-0.12,0.139-0.281,0.104-0.434   c-0.273-1.171-0.412-2.391-0.412-3.626C49.475,25.137,56.611,18,65.384,18c4.383,0,8.616,1.831,11.613,5.023   c0.117,0.126,0.292,0.184,0.461,0.148c3.288-0.646,6.438-1.777,9.386-3.366c-1.302,3.129-3.585,5.776-6.534,7.544   c-0.202,0.121-0.293,0.367-0.216,0.591c0.076,0.223,0.288,0.371,0.532,0.334c2.739-0.327,5.41-0.985,7.963-1.961   C86.593,28.989,84.219,31.329,81.511,33.283z"/></g></svg>