<?xml version="1.0" ?><svg enable-background="new 0 0 100 100" id="Livello_1" version="1.1" viewBox="0 0 100 100" xml:space="preserve" xmlns="http://www.w3.org/2000/svg" xmlns:xlink="http://www.w3.org/1999/xlink"><path d="M23.628,82.701c1.945,2.028,4.41,2.323,5.883,2.5c0.29,0.034,0.546,0.064,0.801,0.11c4.59,0.438,19.533,0.579,19.689,0.58  c0.121,0,12.249-0.024,20.279-0.604l0.359-0.036c1.266-0.123,3.622-0.351,5.726-2.544c1.827-1.842,2.412-5.821,2.438-5.999  c0.006-0.047,0.581-4.737,0.581-9.368v-4.363c0-4.632-0.575-9.322-0.581-9.369c0-0.003-0.001-0.006-0.001-0.009  c-0.024-0.169-0.609-4.148-2.431-5.983c-2.109-2.199-4.466-2.427-5.731-2.55l-0.382-0.039c-8.009-0.576-20.124-0.583-20.271-0.583  c-0.121,0-12.236,0.007-20.268,0.586l-0.359,0.036c-1.266,0.123-3.622,0.351-5.726,2.543c-1.827,1.842-2.411,5.821-2.437,5.999  c-0.006,0.047-0.582,4.737-0.582,9.369v4.363c0,4.631,0.576,9.321,0.583,9.377C21.224,76.887,21.808,80.866,23.628,82.701z   M21.616,62.978c0-4.568,0.568-9.2,0.573-9.237c0.005-0.038,0.562-3.82,2.16-5.433c1.854-1.931,3.891-2.128,5.107-2.245l0.357-0.037  c7.972-0.574,20.052-0.581,20.198-0.581c0.121,0,12.201,0.007,20.15,0.578l0.38,0.04c1.217,0.117,3.254,0.314,5.113,2.252  c1.569,1.582,2.134,5.277,2.155,5.422c0.021,0.18,0.572,4.741,0.572,9.241v4.363c0,4.567-0.567,9.199-0.572,9.236  c-0.005,0.038-0.56,3.817-2.162,5.433c-1.853,1.932-3.89,2.129-5.106,2.246l-0.357,0.037c-7.973,0.574-20.065,0.599-20.181,0.599  c-0.15-0.001-15.051-0.142-19.554-0.569c-0.229-0.043-0.507-0.077-0.821-0.114c-1.427-0.171-3.582-0.429-5.286-2.205  c-1.593-1.605-2.149-5.388-2.153-5.417c-0.006-0.046-0.574-4.678-0.574-9.245V62.978z"/><path d="M37.189,28.782v11.942c0,0.276,0.224,0.5,0.5,0.5s0.5-0.224,0.5-0.5V28.749l5.696-13.951  c0.104-0.256-0.019-0.548-0.273-0.652c-0.257-0.105-0.548,0.018-0.652,0.273l-5.277,12.925l-5.276-12.925  c-0.104-0.256-0.395-0.378-0.652-0.273c-0.255,0.104-0.378,0.396-0.273,0.652L37.189,28.782z"/><path d="M49.903,41.561c1.785,0,3.525-0.859,4.538-2.236c0.809-1.065,1.185-2.588,1.185-4.79v-6.965  c0-2.136-0.436-3.846-1.257-4.939c-0.987-1.346-2.573-2.087-4.466-2.087c-1.978,0-3.438,0.683-4.46,2.079  c-0.836,1.095-1.26,2.765-1.26,4.964l-0.004,6.948c0,2.193,0.387,3.716,1.209,4.784C46.42,40.723,48.108,41.561,49.903,41.561z   M45.184,27.586c0-1.946,0.364-3.453,1.061-4.365c0.838-1.145,2.001-1.678,3.659-1.678c1.566,0,2.865,0.596,3.663,1.683  c0.693,0.924,1.06,2.426,1.06,4.344v6.965c0,1.973-0.312,3.303-0.985,4.192c-0.832,1.131-2.265,1.834-3.737,1.834  c-1.479,0-2.864-0.686-3.715-1.843c-0.688-0.894-1.009-2.223-1.009-4.184L45.184,27.586z"/><path d="M62.962,41.561c2.947,0,4.83-2.853,5.723-4.65v3.814c0,0.276,0.224,0.5,0.5,0.5s0.5-0.224,0.5-0.5V21.638  c0-0.276-0.224-0.5-0.5-0.5s-0.5,0.224-0.5,0.5v11.379c-0.077,1.067-0.231,1.902-0.462,2.481c-0.974,2.447-2.867,5.062-5.261,5.062  c-1.239,0-2.238-0.318-2.74-0.873c-0.538-0.596-0.983-1.244-0.983-3.153l0.004-14.896c0-0.276-0.224-0.5-0.5-0.5s-0.5,0.224-0.5,0.5  l-0.004,14.896c0,2.261,0.613,3.128,1.241,3.823C60.181,41.134,61.418,41.561,62.962,41.561z"/><path d="M70.067,77.772c1.83,0,3.242-0.746,4.195-2.219c0.42-0.65,0.69-1.39,0.808-2.224l0.013-0.144  c0.035-0.386,0.101-1.104,0.101-2.062c0-0.276-0.224-0.5-0.5-0.5s-0.5,0.224-0.5,0.5c0,0.913-0.062,1.603-0.097,1.973l-0.01,0.121  c-0.094,0.662-0.314,1.266-0.654,1.793c-0.757,1.169-1.886,1.762-3.355,1.762c-1.459,0-2.562-0.548-3.372-1.675  c-0.659-0.913-0.993-2.24-0.993-3.943v-3.643h8.987c0.276,0,0.5-0.224,0.5-0.5v-2.371c0-2.017-0.372-3.569-1.105-4.614  c-0.974-1.397-2.39-2.136-4.094-2.136c-1.734,0-3.129,0.717-4.146,2.132c-0.747,1.048-1.143,2.673-1.143,4.699v6.433  c0,1.918,0.397,3.441,1.182,4.528C66.881,77.069,68.289,77.772,70.067,77.772z M65.702,64.722c0-1.791,0.34-3.254,0.956-4.117  c0.828-1.153,1.918-1.714,3.332-1.714c1.383,0,2.483,0.574,3.274,1.709c0.613,0.875,0.925,2.234,0.925,4.041v1.871h-8.487V64.722z"/><path d="M25.311,52.912H30.6v24.36c0,0.276,0.224,0.5,0.5,0.5s0.5-0.224,0.5-0.5v-24.36h5.289c0.276,0,0.5-0.224,0.5-0.5  s-0.224-0.5-0.5-0.5h-5.77c-0.007,0-0.013-0.004-0.019-0.004s-0.013,0.004-0.019,0.004h-5.77c-0.276,0-0.5,0.224-0.5,0.5  S25.034,52.912,25.311,52.912z"/><path d="M36.841,58.846l-0.004,14.151c0,2.158,0.586,2.986,1.186,3.649c0.67,0.742,1.852,1.15,3.327,1.15  c2.764,0,4.543-2.624,5.411-4.339v3.521c0,0.276,0.224,0.5,0.5,0.5s0.5-0.224,0.5-0.5V58.846c0-0.276-0.224-0.5-0.5-0.5  s-0.5,0.224-0.5,0.5v10.818c-0.073,1.007-0.219,1.795-0.437,2.34c-0.318,0.8-2.056,4.793-4.975,4.793  c-1.172,0-2.114-0.299-2.585-0.82c-0.508-0.562-0.928-1.173-0.928-2.979l0.004-14.151c0-0.276-0.224-0.5-0.5-0.5  S36.841,58.569,36.841,58.846z"/><path d="M52.486,77.535c0.276,0,0.5-0.224,0.5-0.5v-1.004c1.206,0.983,2.494,1.504,3.775,1.504c1.823,0,3.16-0.85,3.771-2.413  c0.312-0.908,0.47-2.199,0.47-3.837v-7.352c0-1.88-0.308-3.125-0.57-3.85c-0.626-1.608-1.896-2.459-3.671-2.459  c-1.284,0-2.572,0.517-3.775,1.489v-6.706c0-0.276-0.224-0.5-0.5-0.5s-0.5,0.224-0.5,0.5v24.627  C51.986,77.312,52.21,77.535,52.486,77.535z M52.986,60.452c1.204-1.193,2.507-1.827,3.775-1.827c1.347,0,2.269,0.613,2.735,1.811  c0.23,0.639,0.506,1.763,0.506,3.498v7.352c0,1.902-0.226,2.96-0.408,3.492c-0.568,1.453-1.854,1.758-2.833,1.758  c-1.265,0-2.568-0.641-3.775-1.847V60.452z"/></svg>