<?xml version="1.0" encoding="utf-8"?>
<!-- Generator: Adobe Illustrator 21.0.2, SVG Export Plug-In . SVG Version: 6.00 Build 0)  -->
<svg version="1.1" id="Layer_1" xmlns="http://www.w3.org/2000/svg" xmlns:xlink="http://www.w3.org/1999/xlink" x="0px" y="0px"
	 viewBox="0 0 1300 1300" style="enable-background:new 0 0 1300 1300;" xml:space="preserve">
<title>Artboard 30</title>
<path d="M369.1,935.4H226.2V774.6h142.8V935.4z M249.8,911.8h95.6V798.2h-95.6V911.8z"/>
<path d="M1031.7,935.4H899V672.6c0-40.3-16-60.7-47.4-60.7c-47.2,0-53.7,38.9-53.7,81v242.5H664.3V676.5c0-45.9-12.9-63.8-45.9-63.8
	c-28.7,0-55.2,10.4-55.2,85.6v237H429V624.3c0-35.6,0-69.2-0.8-104.2l-0.3-12.1h129l1.5,10c0.7,4.8,1.6,12.1,2.5,20.2
	c26.7-26.6,60.5-39.6,102.8-39.6c59.4,0,90.4,29.7,105.5,52.4c40.7-46,86.6-52.4,122.8-52.4c32.8,0,139.6,11.5,139.6,159.9
	L1031.7,935.4z M922.6,911.8h85.5V658.5c0-86.6-42.3-136.3-116-136.3c-64.6,0-94.5,28.7-115.2,56.8l-12,16.2l-8.3-18.4
	c-9.2-20.4-33.5-54.6-92.9-54.6c-44.8,0-78.3,17.2-102.5,52.5l-19.8,28.9l-1.8-35c-0.5-11-1.9-26-3.2-37.1H452
	c0.5,30.9,0.5,61,0.5,92.6v287.5h87.1V698.3c0-46.9,8.2-109.2,78.8-109.2c69.5,0,69.5,65.8,69.5,87.4v235.3h86.3V692.8
	c0-25.9,0-104.6,77.3-104.6c45.2,0,71,30.7,71,84.3L922.6,911.8z"/>
</svg>
